{
	"patcher" : 	{
		"fileversion" : 1,
		"appversion" : 		{
			"major" : 7,
			"minor" : 3,
			"revision" : 5,
			"architecture" : "x86",
			"modernui" : 1
		}
,
		"rect" : [ 399.0, 123.0, 996.0, 895.0 ],
		"bgcolor" : [ 0.278431, 0.278431, 0.278431, 1.0 ],
		"editing_bgcolor" : [ 0.666667, 0.698039, 0.717647, 1.0 ],
		"bglocked" : 0,
		"openinpresentation" : 0,
		"default_fontsize" : 9.0,
		"default_fontface" : 0,
		"default_fontname" : "Arial",
		"gridonopen" : 1,
		"gridsize" : [ 15.0, 15.0 ],
		"gridsnaponopen" : 1,
		"objectsnaponopen" : 1,
		"statusbarvisible" : 0,
		"toolbarvisible" : 0,
		"lefttoolbarpinned" : 0,
		"toptoolbarpinned" : 0,
		"righttoolbarpinned" : 0,
		"bottomtoolbarpinned" : 0,
		"toolbars_unpinned_last_save" : 0,
		"tallnewobj" : 0,
		"boxanimatetime" : 0,
		"enablehscroll" : 1,
		"enablevscroll" : 1,
		"devicewidth" : 0.0,
		"description" : "",
		"digest" : "",
		"tags" : "",
		"style" : "",
		"subpatcher_template" : "",
		"boxes" : [ 			{
				"box" : 				{
					"bgcolor" : [ 1.0, 1.0, 1.0, 1.0 ],
					"color" : [ 0.494118, 0.556863, 0.607843, 1.0 ],
					"fontface" : 0,
					"fontname" : "Arial",
					"fontsize" : 9.0,
					"hidden" : 1,
					"id" : "obj-56",
					"maxclass" : "newobj",
					"numinlets" : 3,
					"numoutlets" : 1,
					"outlettype" : [ "" ],
					"patcher" : 					{
						"fileversion" : 1,
						"appversion" : 						{
							"major" : 7,
							"minor" : 3,
							"revision" : 5,
							"architecture" : "x86",
							"modernui" : 1
						}
,
						"rect" : [ 59.0, 103.0, 228.0, 275.0 ],
						"bglocked" : 0,
						"openinpresentation" : 0,
						"default_fontsize" : 9.0,
						"default_fontface" : 0,
						"default_fontname" : "Arial",
						"gridonopen" : 1,
						"gridsize" : [ 15.0, 15.0 ],
						"gridsnaponopen" : 1,
						"objectsnaponopen" : 1,
						"statusbarvisible" : 2,
						"toolbarvisible" : 0,
						"lefttoolbarpinned" : 0,
						"toptoolbarpinned" : 0,
						"righttoolbarpinned" : 0,
						"bottomtoolbarpinned" : 0,
						"toolbars_unpinned_last_save" : 0,
						"tallnewobj" : 0,
						"boxanimatetime" : 0,
						"enablehscroll" : 1,
						"enablevscroll" : 1,
						"devicewidth" : 0.0,
						"description" : "",
						"digest" : "",
						"tags" : "",
						"style" : "",
						"subpatcher_template" : "",
						"boxes" : [ 							{
								"box" : 								{
									"fontsize" : 9.0,
									"id" : "obj-51",
									"maxclass" : "message",
									"numinlets" : 2,
									"numoutlets" : 1,
									"outlettype" : [ "" ],
									"patching_rect" : [ 151.0, 49.0, 42.0, 19.0 ],
									"style" : "",
									"text" : "clear all"
								}

							}
, 							{
								"box" : 								{
									"bgcolor" : [ 1.0, 1.0, 1.0, 1.0 ],
									"color" : [ 0.494118, 0.556863, 0.607843, 1.0 ],
									"fontface" : 0,
									"fontname" : "Arial",
									"fontsize" : 9.0,
									"id" : "obj-48",
									"maxclass" : "newobj",
									"numinlets" : 1,
									"numoutlets" : 2,
									"outlettype" : [ "bang", "" ],
									"patching_rect" : [ 25.0, 49.0, 89.0, 19.0 ],
									"style" : "",
									"text" : "t b l",
									"textcolor" : [ 0.101961, 0.121569, 0.172549, 1.0 ]
								}

							}
, 							{
								"box" : 								{
									"bgcolor" : [ 1.0, 1.0, 1.0, 1.0 ],
									"color" : [ 0.494118, 0.556863, 0.607843, 1.0 ],
									"fontface" : 0,
									"fontname" : "Arial",
									"fontsize" : 9.0,
									"id" : "obj-47",
									"maxclass" : "newobj",
									"numinlets" : 2,
									"numoutlets" : 1,
									"outlettype" : [ "int" ],
									"patching_rect" : [ 42.5, 89.0, 29.5, 19.0 ],
									"style" : "",
									"text" : "+ 1",
									"textcolor" : [ 0.101961, 0.121569, 0.172549, 1.0 ]
								}

							}
, 							{
								"box" : 								{
									"bgcolor" : [ 1.0, 1.0, 1.0, 1.0 ],
									"color" : [ 0.494118, 0.556863, 0.607843, 1.0 ],
									"fontface" : 0,
									"fontname" : "Arial",
									"fontsize" : 9.0,
									"id" : "obj-45",
									"maxclass" : "newobj",
									"numinlets" : 2,
									"numoutlets" : 1,
									"outlettype" : [ "int" ],
									"patching_rect" : [ 25.0, 122.0, 36.5, 19.0 ],
									"style" : "",
									"text" : "int",
									"textcolor" : [ 0.101961, 0.121569, 0.172549, 1.0 ]
								}

							}
, 							{
								"box" : 								{
									"bgcolor" : [ 1.0, 1.0, 1.0, 1.0 ],
									"color" : [ 0.494118, 0.556863, 0.607843, 1.0 ],
									"fontface" : 0,
									"fontname" : "Arial",
									"fontsize" : 9.0,
									"id" : "obj-44",
									"maxclass" : "newobj",
									"numinlets" : 1,
									"numoutlets" : 1,
									"outlettype" : [ "" ],
									"patching_rect" : [ 25.0, 160.0, 66.0, 19.0 ],
									"style" : "",
									"text" : "prepend set 0",
									"textcolor" : [ 0.101961, 0.121569, 0.172549, 1.0 ]
								}

							}
, 							{
								"box" : 								{
									"bgcolor" : [ 1.0, 1.0, 1.0, 1.0 ],
									"color" : [ 0.494118, 0.556863, 0.607843, 1.0 ],
									"fontface" : 0,
									"fontname" : "Arial",
									"fontsize" : 9.0,
									"id" : "obj-43",
									"maxclass" : "newobj",
									"numinlets" : 2,
									"numoutlets" : 2,
									"outlettype" : [ "", "" ],
									"patching_rect" : [ 25.0, 192.0, 89.0, 19.0 ],
									"style" : "",
									"text" : "zl join",
									"textcolor" : [ 0.101961, 0.121569, 0.172549, 1.0 ]
								}

							}
, 							{
								"box" : 								{
									"comment" : "",
									"id" : "obj-52",
									"index" : 1,
									"maxclass" : "inlet",
									"numinlets" : 0,
									"numoutlets" : 1,
									"outlettype" : [ "" ],
									"patching_rect" : [ 25.0, 19.0, 18.0, 18.0 ],
									"style" : ""
								}

							}
, 							{
								"box" : 								{
									"comment" : "",
									"id" : "obj-53",
									"index" : 2,
									"maxclass" : "inlet",
									"numinlets" : 0,
									"numoutlets" : 1,
									"outlettype" : [ "int" ],
									"patching_rect" : [ 88.0, 19.0, 18.0, 18.0 ],
									"style" : ""
								}

							}
, 							{
								"box" : 								{
									"comment" : "",
									"id" : "obj-54",
									"index" : 3,
									"maxclass" : "inlet",
									"numinlets" : 0,
									"numoutlets" : 1,
									"outlettype" : [ "bang" ],
									"patching_rect" : [ 151.0, 19.0, 18.0, 18.0 ],
									"style" : ""
								}

							}
, 							{
								"box" : 								{
									"comment" : "",
									"id" : "obj-55",
									"index" : 1,
									"maxclass" : "outlet",
									"numinlets" : 1,
									"numoutlets" : 0,
									"patching_rect" : [ 25.0, 229.0, 18.0, 18.0 ],
									"style" : ""
								}

							}
 ],
						"lines" : [ 							{
								"patchline" : 								{
									"destination" : [ "obj-55", 0 ],
									"source" : [ "obj-43", 0 ]
								}

							}
, 							{
								"patchline" : 								{
									"destination" : [ "obj-43", 0 ],
									"source" : [ "obj-44", 0 ]
								}

							}
, 							{
								"patchline" : 								{
									"destination" : [ "obj-44", 0 ],
									"order" : 1,
									"source" : [ "obj-45", 0 ]
								}

							}
, 							{
								"patchline" : 								{
									"destination" : [ "obj-47", 0 ],
									"midpoints" : [ 34.5, 151.0, 81.75, 151.0, 81.75, 78.0, 52.0, 78.0 ],
									"order" : 0,
									"source" : [ "obj-45", 0 ]
								}

							}
, 							{
								"patchline" : 								{
									"destination" : [ "obj-45", 1 ],
									"source" : [ "obj-47", 0 ]
								}

							}
, 							{
								"patchline" : 								{
									"destination" : [ "obj-43", 1 ],
									"source" : [ "obj-48", 1 ]
								}

							}
, 							{
								"patchline" : 								{
									"destination" : [ "obj-45", 0 ],
									"source" : [ "obj-48", 0 ]
								}

							}
, 							{
								"patchline" : 								{
									"destination" : [ "obj-55", 0 ],
									"source" : [ "obj-51", 0 ]
								}

							}
, 							{
								"patchline" : 								{
									"destination" : [ "obj-48", 0 ],
									"source" : [ "obj-52", 0 ]
								}

							}
, 							{
								"patchline" : 								{
									"destination" : [ "obj-45", 1 ],
									"source" : [ "obj-53", 0 ]
								}

							}
, 							{
								"patchline" : 								{
									"destination" : [ "obj-51", 0 ],
									"source" : [ "obj-54", 0 ]
								}

							}
 ]
					}
,
					"patching_rect" : [ 682.0, 503.0, 40.0, 19.0 ],
					"saved_object_attributes" : 					{
						"description" : "",
						"digest" : "",
						"fontsize" : 9.0,
						"globalpatchername" : "",
						"style" : "",
						"tags" : ""
					}
,
					"style" : "",
					"text" : "p",
					"textcolor" : [ 0.101961, 0.121569, 0.172549, 1.0 ]
				}

			}
, 			{
				"box" : 				{
					"automouse" : 0,
					"bblend" : 100,
					"bgcolor" : [ 1.0, 1.0, 1.0, 0.0 ],
					"border" : 0,
					"cols" : 1,
					"colwidth" : 250,
					"fblend" : 100,
					"fgcolor" : [ 1.0, 1.0, 1.0, 1.0 ],
					"fontface" : 0,
					"fontname" : "Arial Bold",
					"fontsize" : 11.0,
					"grid" : 0,
					"hcellcolor" : [ 0.819608, 0.819608, 0.898039, 0.0 ],
					"hscroll" : 0,
					"hsync" : 0,
					"id" : "obj-32",
					"ignoreclick" : 1,
					"maxclass" : "jit.cellblock",
					"numinlets" : 2,
					"numoutlets" : 4,
					"outlettype" : [ "list", "", "", "" ],
					"outmode" : 2,
					"patching_rect" : [ 682.0, 527.0, 348.0, 304.0 ],
					"precision" : 6,
					"rowheight" : 20,
					"rows" : 20,
					"selsync" : 0,
					"stcolor" : [ 0.8, 0.8, 0.898039, 0.0 ],
					"vscroll" : 0,
					"vsync" : 0
				}

			}
, 			{
				"box" : 				{
					"bgcolor" : [ 1.0, 1.0, 1.0, 1.0 ],
					"color" : [ 0.494118, 0.556863, 0.607843, 1.0 ],
					"fontface" : 0,
					"fontname" : "Arial",
					"fontsize" : 9.0,
					"hidden" : 1,
					"id" : "obj-28",
					"maxclass" : "newobj",
					"numinlets" : 1,
					"numoutlets" : 3,
					"outlettype" : [ "", "int", "bang" ],
					"patching_rect" : [ 682.0, 453.0, 40.0, 19.0 ],
					"style" : "",
					"text" : "t l 0 b",
					"textcolor" : [ 0.101961, 0.121569, 0.172549, 1.0 ]
				}

			}
, 			{
				"box" : 				{
					"bgcolor" : [ 1.0, 1.0, 1.0, 1.0 ],
					"color" : [ 0.494118, 0.556863, 0.607843, 1.0 ],
					"fontface" : 0,
					"fontname" : "Arial",
					"fontsize" : 9.0,
					"hidden" : 1,
					"id" : "obj-18",
					"maxclass" : "newobj",
					"numinlets" : 4,
					"numoutlets" : 1,
					"outlettype" : [ "" ],
					"patching_rect" : [ 682.0, 478.0, 348.0, 19.0 ],
					"style" : "",
					"text" : "jtol.bach.procannon @out t @depth 1 @steps 1/2 @voices 6 @mod fixed @collect 0",
					"textcolor" : [ 0.101961, 0.121569, 0.172549, 1.0 ]
				}

			}
, 			{
				"box" : 				{
					"bgcolor" : [ 0.568627, 0.619608, 0.662745, 1.0 ],
					"bgfillcolor_angle" : 270.0,
					"bgfillcolor_autogradient" : 0.79,
					"bgfillcolor_color" : [ 0.290196, 0.309804, 0.301961, 1.0 ],
					"bgfillcolor_color1" : [ 0.568627, 0.619608, 0.662745, 1.0 ],
					"bgfillcolor_color2" : [ 0.568627, 0.619608, 0.662745, 1.0 ],
					"bgfillcolor_proportion" : 0.39,
					"bgfillcolor_type" : "gradient",
					"fontface" : 0,
					"fontname" : "Arial",
					"fontsize" : 11.0,
					"gradient" : 0,
					"id" : "obj-10",
					"maxclass" : "message",
					"numinlets" : 2,
					"numoutlets" : 1,
					"outlettype" : [ "" ],
					"patching_rect" : [ 62.0, 196.0, 229.0, 21.0 ],
					"style" : "",
					"text" : "( 1 ( 2 ( 1 1 1 ) 3 ) 4 ( 5 6 ) 7 ( 8 9 ( 1 1 1 ) ) )",
					"textcolor" : [ 1.0, 1.0, 1.0, 1.0 ]
				}

			}
, 			{
				"box" : 				{
					"fontface" : 0,
					"fontname" : "Arial Bold",
					"fontsize" : 9.0,
					"id" : "obj-14",
					"linecount" : 2,
					"maxclass" : "comment",
					"numinlets" : 1,
					"numoutlets" : 0,
					"patching_rect" : [ 788.5, 212.0, 116.0, 27.0 ],
					"style" : "",
					"text" : "@collect 0 >> out as iter\n@collect 1 >> out as list\n",
					"textcolor" : [ 1.0, 1.0, 1.0, 1.0 ]
				}

			}
, 			{
				"box" : 				{
					"fontface" : 0,
					"fontname" : "Arial Bold",
					"fontsize" : 9.0,
					"id" : "obj-9",
					"linecount" : 2,
					"maxclass" : "comment",
					"numinlets" : 1,
					"numoutlets" : 0,
					"patching_rect" : [ 788.5, 185.0, 139.0, 27.0 ],
					"style" : "",
					"text" : "@mod fixed >> fixed duration\n@mod mul >> mul duration",
					"textcolor" : [ 1.0, 1.0, 1.0, 1.0 ]
				}

			}
, 			{
				"box" : 				{
					"bgcolor" : [ 0.568627, 0.619608, 0.662745, 1.0 ],
					"bgfillcolor_angle" : 270.0,
					"bgfillcolor_autogradient" : 0.79,
					"bgfillcolor_color" : [ 0.290196, 0.309804, 0.301961, 1.0 ],
					"bgfillcolor_color1" : [ 0.568627, 0.619608, 0.662745, 1.0 ],
					"bgfillcolor_color2" : [ 0.568627, 0.619608, 0.662745, 1.0 ],
					"bgfillcolor_proportion" : 0.39,
					"bgfillcolor_type" : "gradient",
					"fontface" : 0,
					"fontname" : "Arial",
					"fontsize" : 11.0,
					"gradient" : 0,
					"id" : "obj-17",
					"maxclass" : "message",
					"numinlets" : 2,
					"numoutlets" : 1,
					"outlettype" : [ "" ],
					"patching_rect" : [ 22.0, 134.0, 126.0, 21.0 ],
					"style" : "",
					"text" : "( 1 1 1 1 ( 1 1 1 1 1 ) 2 )",
					"textcolor" : [ 1.0, 1.0, 1.0, 1.0 ]
				}

			}
, 			{
				"box" : 				{
					"hidden" : 1,
					"id" : "obj-8",
					"maxclass" : "newobj",
					"numinlets" : 1,
					"numoutlets" : 1,
					"outlettype" : [ "" ],
					"patching_rect" : [ 226.5, 420.0, 57.0, 19.0 ],
					"style" : "",
					"text" : "loadmess 1"
				}

			}
, 			{
				"box" : 				{
					"id" : "obj-6",
					"maxclass" : "comment",
					"numinlets" : 1,
					"numoutlets" : 0,
					"patching_rect" : [ 171.0, 401.0, 33.0, 17.0 ],
					"style" : "",
					"text" : "depth",
					"textcolor" : [ 1.0, 1.0, 1.0, 1.0 ]
				}

			}
, 			{
				"box" : 				{
					"id" : "obj-7",
					"maxclass" : "number",
					"numinlets" : 1,
					"numoutlets" : 2,
					"outlettype" : [ "", "bang" ],
					"parameter_enable" : 0,
					"patching_rect" : [ 171.0, 420.0, 50.0, 19.0 ],
					"style" : ""
				}

			}
, 			{
				"box" : 				{
					"bgcolor" : [ 1.0, 1.0, 1.0, 1.0 ],
					"color" : [ 0.494118, 0.556863, 0.607843, 1.0 ],
					"fontface" : 0,
					"fontname" : "Arial",
					"fontsize" : 9.0,
					"id" : "obj-69",
					"maxclass" : "newobj",
					"numinlets" : 1,
					"numoutlets" : 2,
					"outlettype" : [ "", "" ],
					"patching_rect" : [ 22.0, 245.0, 44.0, 19.0 ],
					"style" : "",
					"text" : "t l l",
					"textcolor" : [ 0.101961, 0.121569, 0.172549, 1.0 ]
				}

			}
, 			{
				"box" : 				{
					"bgcolor" : [ 1.0, 1.0, 1.0, 1.0 ],
					"color" : [ 0.494118, 0.556863, 0.607843, 1.0 ],
					"fontface" : 0,
					"fontname" : "Arial",
					"fontsize" : 9.0,
					"id" : "obj-62",
					"linecount" : 2,
					"maxclass" : "newobj",
					"numinlets" : 4,
					"numoutlets" : 4,
					"outlettype" : [ "bang", "", "", "" ],
					"patching_rect" : [ 47.0, 272.5, 139.0, 29.0 ],
					"style" : "",
					"text" : "jtol.bach2score @note 4 @pitch 50 @change 1 @tempo 300",
					"textcolor" : [ 0.101961, 0.121569, 0.172549, 1.0 ]
				}

			}
, 			{
				"box" : 				{
					"allowglissandi" : 0,
					"bgcolor" : [ 0.94902, 0.94902, 0.941176, 1.0 ],
					"bwcompatibility" : 80001,
					"cautionaryaccidentalsdecay" : 10,
					"clefs" : [ "F" ],
					"constraintbeamsinspaces" : 0,
					"defaultnoteslots" : [ "null" ],
					"embed" : 0,
					"fontface" : 0,
					"fontname" : "Arial",
					"fontsize" : 12.0,
					"grid" : 1,
					"id" : "obj-63",
					"keepselectioniflostfocus" : 0,
					"legend" : 0,
					"linkarticulationstoslot" : 0,
					"linkdynamicstoslot" : 0,
					"linklyricstoslot" : 7,
					"loop" : [ "(", 1, 1, 0, ")", "(", 1, 1, 0, ")" ],
					"markercolor" : [ 0.22, 0.53, 0.3, 0.8 ],
					"maxclass" : "bach.score",
					"measmarkercolor" : [ 0.53, 0.22, 0.3, 0.8 ],
					"numinlets" : 7,
					"numoutlets" : 9,
					"numvoices" : 1,
					"out" : "nnnnnnnn",
					"outlettype" : [ "", "", "", "", "", "", "", "", "bang" ],
					"patching_rect" : [ 47.0, 315.0, 259.0, 70.0 ],
					"pitcheditrange" : [ "null" ],
					"ruler" : 3,
					"senddoneafterpaint" : 0,
					"senddoneatstartup" : 0,
					"showledgerlines" : 0,
					"showlyrics" : 0,
					"showmarkers" : 0,
					"showtempi" : 0,
					"showtupletspreferences" : 3,
					"showvoicenames" : 0,
					"slotwinalpha" : 92.0,
					"spacingtype" : 1,
					"spacingwidth" : 1.67,
					"stafflines" : [ 5 ],
					"textcolor" : [ 0.0, 0.0, 0.0, 1.0 ],
					"tonedivision" : 4,
					"verboseundo" : 1,
					"versionnumber" : 80001,
					"voicenames" : [ "(", ")" ],
					"voicespacing" : [ 0.0, 26.0 ],
					"zoom" : 99.055115
				}

			}
, 			{
				"box" : 				{
					"bgcolor" : [ 1.0, 1.0, 1.0, 1.0 ],
					"color" : [ 0.494118, 0.556863, 0.607843, 1.0 ],
					"fontface" : 0,
					"fontname" : "Arial",
					"fontsize" : 9.0,
					"id" : "obj-65",
					"maxclass" : "newobj",
					"numinlets" : 4,
					"numoutlets" : 4,
					"outlettype" : [ "bang", "", "", "" ],
					"patching_rect" : [ 22.0, 488.0, 335.0, 19.0 ],
					"style" : "",
					"text" : "jtol.bach2score @note 4 @pitch 50 @change 1 @tempo 300 @voice poly",
					"textcolor" : [ 0.101961, 0.121569, 0.172549, 1.0 ]
				}

			}
, 			{
				"box" : 				{
					"allowglissandi" : 0,
					"bgcolor" : [ 0.94902, 0.94902, 0.941176, 1.0 ],
					"bwcompatibility" : 80001,
					"cautionaryaccidentalsdecay" : 10,
					"clefs" : [ "F", "F", "F", "F", "F", "F" ],
					"constraintbeamsinspaces" : 0,
					"defaultnoteslots" : [ "null" ],
					"embed" : 0,
					"enharmonictable" : [ "default", "default", "default", "default", "default", "default" ],
					"fontface" : 0,
					"fontname" : "Arial",
					"fontsize" : 12.0,
					"grid" : 1,
					"hidevoices" : [ 0, 0, 0, 0, 0, 0 ],
					"id" : "obj-66",
					"keepselectioniflostfocus" : 0,
					"keys" : [ "CM", "CM", "CM", "CM", "CM", "CM" ],
					"legend" : 0,
					"linkarticulationstoslot" : 0,
					"linkdynamicstoslot" : 0,
					"linklyricstoslot" : 7,
					"loop" : [ "(", 1, 1, 0, ")", "(", 1, 1, 0, ")" ],
					"markercolor" : [ 0.22, 0.53, 0.3, 0.8 ],
					"maxclass" : "bach.score",
					"measmarkercolor" : [ 0.53, 0.22, 0.3, 0.8 ],
					"midichannels" : [ 1, 2, 3, 4, 5, 6 ],
					"numinlets" : 7,
					"numoutlets" : 9,
					"numparts" : [ 1, 1, 1, 1, 1, 1 ],
					"numvoices" : 6,
					"out" : "nnnnnnnn",
					"outlettype" : [ "", "", "", "", "", "", "", "", "bang" ],
					"patching_rect" : [ 22.0, 527.0, 651.0, 304.0 ],
					"pitcheditrange" : [ "null" ],
					"ruler" : 3,
					"senddoneafterpaint" : 0,
					"senddoneatstartup" : 0,
					"showledgerlines" : 0,
					"showlyrics" : 0,
					"showmarkers" : 0,
					"showmeasurenumbers" : [ 1, 1, 1, 1, 1, 1 ],
					"showtempi" : 0,
					"showtupletspreferences" : 3,
					"showvoicenames" : 0,
					"slotwinalpha" : 92.0,
					"spacingtype" : 1,
					"spacingwidth" : 1.67,
					"stafflines" : [ 5, 5, 5, 5, 5, 5 ],
					"textcolor" : [ 0.0, 0.0, 0.0, 1.0 ],
					"tonedivision" : 4,
					"verboseundo" : 1,
					"versionnumber" : 80001,
					"voicenames" : [ "(", ")", "(", ")", "(", ")", "(", ")", "(", ")", "(", ")" ],
					"voicespacing" : [ 0.0, 26.0, 26.0, 26.0, 26.0, 26.0, 26.0 ],
					"zoom" : 99.055115
				}

			}
, 			{
				"box" : 				{
					"hidden" : 1,
					"id" : "obj-5",
					"maxclass" : "newobj",
					"numinlets" : 1,
					"numoutlets" : 1,
					"outlettype" : [ "" ],
					"patching_rect" : [ 375.0, 420.0, 64.0, 19.0 ],
					"style" : "",
					"text" : "loadmess 1/2"
				}

			}
, 			{
				"box" : 				{
					"hidden" : 1,
					"id" : "obj-2",
					"maxclass" : "newobj",
					"numinlets" : 1,
					"numoutlets" : 1,
					"outlettype" : [ "" ],
					"patching_rect" : [ 524.0, 420.0, 57.0, 19.0 ],
					"style" : "",
					"text" : "loadmess 6"
				}

			}
, 			{
				"box" : 				{
					"id" : "obj-96",
					"maxclass" : "comment",
					"numinlets" : 1,
					"numoutlets" : 0,
					"patching_rect" : [ 320.0, 401.0, 32.0, 17.0 ],
					"style" : "",
					"text" : "steps",
					"textcolor" : [ 1.0, 1.0, 1.0, 1.0 ]
				}

			}
, 			{
				"box" : 				{
					"id" : "obj-95",
					"maxclass" : "comment",
					"numinlets" : 1,
					"numoutlets" : 0,
					"patching_rect" : [ 469.0, 401.0, 36.0, 17.0 ],
					"style" : "",
					"text" : "voices",
					"textcolor" : [ 1.0, 1.0, 1.0, 1.0 ]
				}

			}
, 			{
				"box" : 				{
					"fontface" : 0,
					"fontname" : "Arial",
					"fontsize" : 9.0,
					"id" : "obj-84",
					"maxclass" : "bach.ratnum",
					"maximum" : "none",
					"minimum" : "none",
					"numinlets" : 1,
					"numoutlets" : 2,
					"out" : "n",
					"outlettype" : [ "", "bang" ],
					"patching_rect" : [ 320.0, 420.0, 50.0, 19.0 ],
					"text" : "1/2"
				}

			}
, 			{
				"box" : 				{
					"id" : "obj-79",
					"maxclass" : "number",
					"numinlets" : 1,
					"numoutlets" : 2,
					"outlettype" : [ "", "bang" ],
					"parameter_enable" : 0,
					"patching_rect" : [ 469.0, 420.0, 50.0, 19.0 ],
					"style" : ""
				}

			}
, 			{
				"box" : 				{
					"fontface" : 0,
					"fontname" : "Arial Bold",
					"fontsize" : 9.0,
					"id" : "obj-19",
					"maxclass" : "comment",
					"numinlets" : 1,
					"numoutlets" : 0,
					"patching_rect" : [ 788.5, 157.0, 111.0, 17.0 ],
					"style" : "",
					"text" : "(i E Z+ or \"all\" (default))",
					"textcolor" : [ 1.0, 1.0, 1.0, 1.0 ]
				}

			}
, 			{
				"box" : 				{
					"fontface" : 0,
					"fontname" : "Arial Bold",
					"fontsize" : 9.0,
					"id" : "obj-16",
					"maxclass" : "comment",
					"numinlets" : 1,
					"numoutlets" : 0,
					"patching_rect" : [ 788.5, 145.0, 108.0, 17.0 ],
					"style" : "",
					"text" : "@depth i >> tree depth",
					"textcolor" : [ 1.0, 1.0, 1.0, 1.0 ]
				}

			}
, 			{
				"box" : 				{
					"bgcolor" : [ 0.568627, 0.619608, 0.662745, 1.0 ],
					"bgfillcolor_angle" : 270.0,
					"bgfillcolor_autogradient" : 0.79,
					"bgfillcolor_color" : [ 0.290196, 0.309804, 0.301961, 1.0 ],
					"bgfillcolor_color1" : [ 0.568627, 0.619608, 0.662745, 1.0 ],
					"bgfillcolor_color2" : [ 0.568627, 0.619608, 0.662745, 1.0 ],
					"bgfillcolor_proportion" : 0.39,
					"bgfillcolor_type" : "gradient",
					"fontface" : 0,
					"fontname" : "Arial",
					"fontsize" : 11.0,
					"gradient" : 0,
					"id" : "obj-50",
					"maxclass" : "message",
					"numinlets" : 2,
					"numoutlets" : 1,
					"outlettype" : [ "" ],
					"patching_rect" : [ 42.0, 165.0, 144.0, 21.0 ],
					"style" : "",
					"text" : "( 1 ( 2 3 ) 4 ( 5 6 ) 7 ( 8 9 ) )",
					"textcolor" : [ 1.0, 1.0, 1.0, 1.0 ]
				}

			}
, 			{
				"box" : 				{
					"bgcolor" : [ 0.568627, 0.619608, 0.662745, 1.0 ],
					"bgfillcolor_angle" : 270.0,
					"bgfillcolor_autogradient" : 0.79,
					"bgfillcolor_color" : [ 0.290196, 0.309804, 0.301961, 1.0 ],
					"bgfillcolor_color1" : [ 0.568627, 0.619608, 0.662745, 1.0 ],
					"bgfillcolor_color2" : [ 0.568627, 0.619608, 0.662745, 1.0 ],
					"bgfillcolor_proportion" : 0.39,
					"bgfillcolor_type" : "gradient",
					"fontface" : 0,
					"fontname" : "Arial",
					"fontsize" : 9.0,
					"gradient" : 0,
					"hidden" : 1,
					"id" : "obj-22",
					"linecount" : 2,
					"maxclass" : "message",
					"numinlets" : 2,
					"numoutlets" : 1,
					"outlettype" : [ "" ],
					"patching_rect" : [ 897.5, 881.0, 238.0, 29.0 ],
					"style" : "",
					"text" : ";\rmax launchbrowser http://www.acsu.buffalo.edu/~jtrinker/",
					"textcolor" : [ 0.101961, 0.121569, 0.172549, 1.0 ]
				}

			}
, 			{
				"box" : 				{
					"fontface" : 0,
					"fontname" : "Arial Bold",
					"fontsize" : 11.0,
					"id" : "obj-24",
					"maxclass" : "comment",
					"numinlets" : 1,
					"numoutlets" : 0,
					"patching_rect" : [ 883.5, 850.0, 61.0, 19.0 ],
					"style" : "",
					"text" : "JT Rinker",
					"textcolor" : [ 1.0, 1.0, 1.0, 1.0 ]
				}

			}
, 			{
				"box" : 				{
					"fontface" : 1,
					"fontname" : "Arial",
					"fontsize" : 11.0,
					"id" : "obj-42",
					"maxclass" : "comment",
					"numinlets" : 1,
					"numoutlets" : 0,
					"patching_rect" : [ 163.0, 95.0, 74.0, 19.0 ],
					"style" : "",
					"text" : "Bach library",
					"textcolor" : [ 0.93, 0.93, 0.97, 1.0 ]
				}

			}
, 			{
				"box" : 				{
					"fontface" : 0,
					"fontname" : "Arial Bold",
					"fontsize" : 9.0,
					"id" : "obj-13",
					"maxclass" : "comment",
					"numinlets" : 1,
					"numoutlets" : 0,
					"patching_rect" : [ 788.5, 126.0, 147.0, 17.0 ],
					"style" : "",
					"text" : "@out n  (default) >> bach native",
					"textcolor" : [ 1.0, 1.0, 1.0, 1.0 ]
				}

			}
, 			{
				"box" : 				{
					"fontface" : 0,
					"fontname" : "Arial Bold",
					"fontsize" : 9.0,
					"id" : "obj-12",
					"maxclass" : "comment",
					"numinlets" : 1,
					"numoutlets" : 0,
					"patching_rect" : [ 788.5, 110.0, 70.0, 17.0 ],
					"style" : "",
					"text" : "@out t >> text",
					"textcolor" : [ 1.0, 1.0, 1.0, 1.0 ]
				}

			}
, 			{
				"box" : 				{
					"fontface" : 0,
					"fontname" : "Arial Bold",
					"fontsize" : 9.0,
					"id" : "obj-11",
					"maxclass" : "comment",
					"numinlets" : 1,
					"numoutlets" : 0,
					"patching_rect" : [ 788.5, 91.0, 61.0, 17.0 ],
					"style" : "",
					"text" : "__________",
					"textcolor" : [ 1.0, 1.0, 1.0, 1.0 ]
				}

			}
, 			{
				"box" : 				{
					"handoff" : "",
					"hilite" : 0,
					"hltcolor" : [ 1.0, 1.0, 1.0, 0.501961 ],
					"id" : "obj-3",
					"maxclass" : "ubutton",
					"numinlets" : 1,
					"numoutlets" : 4,
					"outlettype" : [ "bang", "bang", "", "int" ],
					"patching_rect" : [ 162.0, 94.0, 71.0, 21.0 ]
				}

			}
, 			{
				"box" : 				{
					"bgcolor" : [ 0.568627, 0.619608, 0.662745, 1.0 ],
					"bgfillcolor_angle" : 270.0,
					"bgfillcolor_autogradient" : 0.79,
					"bgfillcolor_color" : [ 0.290196, 0.309804, 0.301961, 1.0 ],
					"bgfillcolor_color1" : [ 0.568627, 0.619608, 0.662745, 1.0 ],
					"bgfillcolor_color2" : [ 0.568627, 0.619608, 0.662745, 1.0 ],
					"bgfillcolor_proportion" : 0.39,
					"bgfillcolor_type" : "gradient",
					"fontface" : 0,
					"fontname" : "Arial",
					"fontsize" : 9.0,
					"gradient" : 0,
					"hidden" : 1,
					"id" : "obj-41",
					"linecount" : 2,
					"maxclass" : "message",
					"numinlets" : 2,
					"numoutlets" : 1,
					"outlettype" : [ "" ],
					"patching_rect" : [ 238.0, 94.0, 197.0, 29.0 ],
					"style" : "",
					"text" : ";\rmax launchbrowser http://www.bachproject.net",
					"textcolor" : [ 0.101961, 0.121569, 0.172549, 1.0 ]
				}

			}
, 			{
				"box" : 				{
					"bgcolor" : [ 1.0, 1.0, 1.0, 1.0 ],
					"color" : [ 0.494118, 0.556863, 0.607843, 1.0 ],
					"fontface" : 0,
					"fontname" : "Arial",
					"fontsize" : 9.0,
					"hidden" : 1,
					"id" : "obj-35",
					"maxclass" : "newobj",
					"numinlets" : 1,
					"numoutlets" : 0,
					"patching_rect" : [ 739.5, 881.0, 45.0, 19.0 ],
					"style" : "",
					"text" : "onecopy",
					"textcolor" : [ 0.101961, 0.121569, 0.172549, 1.0 ]
				}

			}
, 			{
				"box" : 				{
					"bgcolor" : [ 0.568627, 0.619608, 0.662745, 1.0 ],
					"bgfillcolor_angle" : 270.0,
					"bgfillcolor_autogradient" : 0.79,
					"bgfillcolor_color" : [ 0.290196, 0.309804, 0.301961, 1.0 ],
					"bgfillcolor_color1" : [ 0.568627, 0.619608, 0.662745, 1.0 ],
					"bgfillcolor_color2" : [ 0.568627, 0.619608, 0.662745, 1.0 ],
					"bgfillcolor_proportion" : 0.39,
					"bgfillcolor_type" : "gradient",
					"fontface" : 0,
					"fontname" : "Arial",
					"fontsize" : 9.0,
					"gradient" : 0,
					"hidden" : 1,
					"id" : "obj-46",
					"linecount" : 2,
					"maxclass" : "message",
					"numinlets" : 2,
					"numoutlets" : 1,
					"outlettype" : [ "" ],
					"patching_rect" : [ 801.5, 881.0, 180.0, 29.0 ],
					"style" : "",
					"text" : ";\rmax launchbrowser http://www.opasquet.fr",
					"textcolor" : [ 0.101961, 0.121569, 0.172549, 1.0 ]
				}

			}
, 			{
				"box" : 				{
					"fontface" : 0,
					"fontname" : "Arial Bold",
					"fontsize" : 11.0,
					"id" : "obj-36",
					"maxclass" : "comment",
					"numinlets" : 1,
					"numoutlets" : 0,
					"patching_rect" : [ 766.5, 850.0, 124.0, 19.0 ],
					"style" : "",
					"text" : "2018, Olivier Pasquet,",
					"textcolor" : [ 1.0, 1.0, 1.0, 1.0 ]
				}

			}
, 			{
				"box" : 				{
					"fontface" : 0,
					"fontname" : "Arial",
					"fontsize" : 11.0,
					"id" : "obj-143",
					"linecount" : 2,
					"maxclass" : "comment",
					"numinlets" : 1,
					"numoutlets" : 0,
					"patching_rect" : [ 22.0, 83.0, 347.0, 31.0 ],
					"style" : "",
					"text" : "jtol.bach.cannon creates a simple prolation canon at a specific depth\nThis abstraction requires the",
					"textcolor" : [ 0.93, 0.93, 0.97, 1.0 ],
					"varname" : "zsa_description[1]"
				}

			}
, 			{
				"box" : 				{
					"fontface" : 0,
					"fontname" : "Arial",
					"fontsize" : 13.0,
					"id" : "obj-133",
					"maxclass" : "comment",
					"numinlets" : 1,
					"numoutlets" : 0,
					"patching_rect" : [ 22.0, 43.0, 141.0, 21.0 ],
					"style" : "",
					"text" : "simple prolation canon",
					"textcolor" : [ 0.93, 0.93, 0.97, 1.0 ],
					"varname" : "zsa_description"
				}

			}
, 			{
				"box" : 				{
					"fontface" : 3,
					"fontname" : "Arial",
					"fontsize" : 21.0,
					"id" : "obj-134",
					"maxclass" : "comment",
					"numinlets" : 1,
					"numoutlets" : 0,
					"patching_rect" : [ 22.0, 13.0, 198.0, 30.0 ],
					"style" : "",
					"text" : "jtol.bach.procanon",
					"textcolor" : [ 1.0, 1.0, 1.0, 1.0 ],
					"varname" : "zsa_title"
				}

			}
, 			{
				"box" : 				{
					"fontface" : 0,
					"fontname" : "Arial Bold",
					"fontsize" : 9.0,
					"id" : "obj-15",
					"maxclass" : "comment",
					"numinlets" : 1,
					"numoutlets" : 0,
					"patching_rect" : [ 788.5, 90.0, 62.0, 17.0 ],
					"style" : "",
					"text" : "arguments :",
					"textcolor" : [ 1.0, 1.0, 1.0, 1.0 ]
				}

			}
, 			{
				"box" : 				{
					"angle" : 0.0,
					"bgcolor" : [ 0.47451, 0.47451, 0.47451, 1.0 ],
					"bordercolor" : [ 0.415686, 0.454902, 0.52549, 1.0 ],
					"id" : "obj-29",
					"maxclass" : "panel",
					"mode" : 0,
					"numinlets" : 1,
					"numoutlets" : 0,
					"patching_rect" : [ 783.5, 84.0, 161.0, 158.0 ],
					"proportion" : 0.39,
					"style" : ""
				}

			}
, 			{
				"box" : 				{
					"bgcolor" : [ 1.0, 1.0, 1.0, 1.0 ],
					"color" : [ 0.494118, 0.556863, 0.607843, 1.0 ],
					"fontface" : 0,
					"fontname" : "Arial",
					"fontsize" : 9.0,
					"id" : "obj-1",
					"maxclass" : "newobj",
					"numinlets" : 4,
					"numoutlets" : 1,
					"outlettype" : [ "" ],
					"patching_rect" : [ 22.0, 454.0, 466.0, 19.0 ],
					"style" : "",
					"text" : "jtol.bach.procannon @out t @depth 1 @steps 1/2 @voices 6 @mod fixed @collect 1",
					"textcolor" : [ 0.101961, 0.121569, 0.172549, 1.0 ]
				}

			}
, 			{
				"box" : 				{
					"handoff" : "",
					"hilite" : 0,
					"hltcolor" : [ 1.0, 1.0, 1.0, 0.501961 ],
					"id" : "obj-4",
					"maxclass" : "ubutton",
					"numinlets" : 1,
					"numoutlets" : 4,
					"outlettype" : [ "bang", "bang", "", "int" ],
					"patching_rect" : [ 883.5, 850.0, 60.0, 18.0 ]
				}

			}
, 			{
				"box" : 				{
					"handoff" : "",
					"hilite" : 0,
					"hltcolor" : [ 1.0, 1.0, 1.0, 0.501961 ],
					"id" : "obj-137",
					"maxclass" : "ubutton",
					"numinlets" : 1,
					"numoutlets" : 4,
					"outlettype" : [ "bang", "bang", "", "int" ],
					"patching_rect" : [ 766.5, 850.0, 125.0, 18.0 ]
				}

			}
, 			{
				"box" : 				{
					"angle" : -88.349983,
					"background" : 1,
					"bordercolor" : [ 0.415686, 0.454902, 0.52549, 1.0 ],
					"grad1" : [ 0.694118, 0.694118, 0.694118, 1.0 ],
					"grad2" : [ 0.6, 0.6, 0.6, 1.0 ],
					"id" : "obj-135",
					"maxclass" : "panel",
					"mode" : 1,
					"numinlets" : 1,
					"numoutlets" : 0,
					"patching_rect" : [ 22.0, 12.0, 473.0, 52.0 ],
					"proportion" : 0.39,
					"style" : "",
					"varname" : "autohelp_top_panel"
				}

			}
 ],
		"lines" : [ 			{
				"patchline" : 				{
					"color" : [ 0.999999, 0.999974, 0.999991, 1.0 ],
					"destination" : [ "obj-65", 0 ],
					"source" : [ "obj-1", 0 ]
				}

			}
, 			{
				"patchline" : 				{
					"color" : [ 0.999999, 0.999974, 0.999991, 1.0 ],
					"destination" : [ "obj-69", 0 ],
					"source" : [ "obj-10", 0 ]
				}

			}
, 			{
				"patchline" : 				{
					"color" : [ 0.101961, 0.121569, 0.172549, 1.0 ],
					"destination" : [ "obj-46", 0 ],
					"hidden" : 1,
					"source" : [ "obj-137", 1 ]
				}

			}
, 			{
				"patchline" : 				{
					"color" : [ 0.999999, 0.999974, 0.999991, 1.0 ],
					"destination" : [ "obj-69", 0 ],
					"source" : [ "obj-17", 0 ]
				}

			}
, 			{
				"patchline" : 				{
					"destination" : [ "obj-56", 0 ],
					"hidden" : 1,
					"source" : [ "obj-18", 0 ]
				}

			}
, 			{
				"patchline" : 				{
					"destination" : [ "obj-79", 0 ],
					"hidden" : 1,
					"source" : [ "obj-2", 0 ]
				}

			}
, 			{
				"patchline" : 				{
					"destination" : [ "obj-18", 0 ],
					"hidden" : 1,
					"source" : [ "obj-28", 0 ]
				}

			}
, 			{
				"patchline" : 				{
					"destination" : [ "obj-56", 2 ],
					"hidden" : 1,
					"source" : [ "obj-28", 2 ]
				}

			}
, 			{
				"patchline" : 				{
					"destination" : [ "obj-56", 1 ],
					"hidden" : 1,
					"source" : [ "obj-28", 1 ]
				}

			}
, 			{
				"patchline" : 				{
					"color" : [ 0.101961, 0.121569, 0.172549, 1.0 ],
					"destination" : [ "obj-41", 0 ],
					"hidden" : 1,
					"source" : [ "obj-3", 1 ]
				}

			}
, 			{
				"patchline" : 				{
					"color" : [ 0.101961, 0.121569, 0.172549, 1.0 ],
					"destination" : [ "obj-22", 0 ],
					"hidden" : 1,
					"source" : [ "obj-4", 1 ]
				}

			}
, 			{
				"patchline" : 				{
					"destination" : [ "obj-84", 0 ],
					"hidden" : 1,
					"source" : [ "obj-5", 0 ]
				}

			}
, 			{
				"patchline" : 				{
					"color" : [ 0.999999, 0.999974, 0.999991, 1.0 ],
					"destination" : [ "obj-69", 0 ],
					"source" : [ "obj-50", 0 ]
				}

			}
, 			{
				"patchline" : 				{
					"destination" : [ "obj-32", 0 ],
					"hidden" : 1,
					"source" : [ "obj-56", 0 ]
				}

			}
, 			{
				"patchline" : 				{
					"color" : [ 0.999999, 0.999974, 0.999991, 1.0 ],
					"destination" : [ "obj-63", 3 ],
					"source" : [ "obj-62", 3 ]
				}

			}
, 			{
				"patchline" : 				{
					"color" : [ 0.999999, 0.999974, 0.999991, 1.0 ],
					"destination" : [ "obj-63", 2 ],
					"source" : [ "obj-62", 2 ]
				}

			}
, 			{
				"patchline" : 				{
					"color" : [ 0.999999, 0.999974, 0.999991, 1.0 ],
					"destination" : [ "obj-63", 1 ],
					"source" : [ "obj-62", 1 ]
				}

			}
, 			{
				"patchline" : 				{
					"color" : [ 0.999999, 0.999974, 0.999991, 1.0 ],
					"destination" : [ "obj-63", 0 ],
					"source" : [ "obj-62", 0 ]
				}

			}
, 			{
				"patchline" : 				{
					"color" : [ 0.999999, 0.999974, 0.999991, 1.0 ],
					"destination" : [ "obj-66", 3 ],
					"source" : [ "obj-65", 3 ]
				}

			}
, 			{
				"patchline" : 				{
					"color" : [ 0.999999, 0.999974, 0.999991, 1.0 ],
					"destination" : [ "obj-66", 2 ],
					"source" : [ "obj-65", 2 ]
				}

			}
, 			{
				"patchline" : 				{
					"color" : [ 0.999999, 0.999974, 0.999991, 1.0 ],
					"destination" : [ "obj-66", 1 ],
					"source" : [ "obj-65", 1 ]
				}

			}
, 			{
				"patchline" : 				{
					"color" : [ 0.999999, 0.999974, 0.999991, 1.0 ],
					"destination" : [ "obj-66", 0 ],
					"source" : [ "obj-65", 0 ]
				}

			}
, 			{
				"patchline" : 				{
					"color" : [ 0.999999, 0.999974, 0.999991, 1.0 ],
					"destination" : [ "obj-1", 0 ],
					"order" : 1,
					"source" : [ "obj-69", 0 ]
				}

			}
, 			{
				"patchline" : 				{
					"color" : [ 0.999999, 0.999974, 0.999991, 1.0 ],
					"destination" : [ "obj-28", 0 ],
					"hidden" : 1,
					"midpoints" : [ 31.5, 446.5, 691.5, 446.5 ],
					"order" : 0,
					"source" : [ "obj-69", 0 ]
				}

			}
, 			{
				"patchline" : 				{
					"color" : [ 0.999999, 0.999974, 0.999991, 1.0 ],
					"destination" : [ "obj-62", 0 ],
					"source" : [ "obj-69", 1 ]
				}

			}
, 			{
				"patchline" : 				{
					"color" : [ 0.999999, 0.999974, 0.999991, 1.0 ],
					"destination" : [ "obj-1", 1 ],
					"order" : 1,
					"source" : [ "obj-7", 0 ]
				}

			}
, 			{
				"patchline" : 				{
					"destination" : [ "obj-18", 1 ],
					"hidden" : 1,
					"midpoints" : [ 180.5, 446.0, 801.166687, 446.0 ],
					"order" : 0,
					"source" : [ "obj-7", 0 ]
				}

			}
, 			{
				"patchline" : 				{
					"color" : [ 0.999999, 0.999974, 0.999991, 1.0 ],
					"destination" : [ "obj-1", 3 ],
					"order" : 1,
					"source" : [ "obj-79", 0 ]
				}

			}
, 			{
				"patchline" : 				{
					"destination" : [ "obj-18", 3 ],
					"hidden" : 1,
					"midpoints" : [ 478.5, 446.0, 1020.5, 446.0 ],
					"order" : 0,
					"source" : [ "obj-79", 0 ]
				}

			}
, 			{
				"patchline" : 				{
					"destination" : [ "obj-7", 0 ],
					"hidden" : 1,
					"source" : [ "obj-8", 0 ]
				}

			}
, 			{
				"patchline" : 				{
					"color" : [ 0.999999, 0.999974, 0.999991, 1.0 ],
					"destination" : [ "obj-1", 2 ],
					"order" : 1,
					"source" : [ "obj-84", 0 ]
				}

			}
, 			{
				"patchline" : 				{
					"destination" : [ "obj-18", 2 ],
					"hidden" : 1,
					"midpoints" : [ 329.5, 446.0, 910.833313, 446.0 ],
					"order" : 0,
					"source" : [ "obj-84", 0 ]
				}

			}
 ],
		"dependency_cache" : [ 			{
				"name" : "jtol.bach.procannon.maxpat",
				"bootpath" : "~/Dropbox/op_bach_tree/trees_Max_703",
				"patcherrelativepath" : ".",
				"type" : "JSON",
				"implicit" : 1
			}
, 			{
				"name" : "jtol.bach.decompose.maxpat",
				"bootpath" : "~/Dropbox/op_bach_tree/trees_Max_703",
				"patcherrelativepath" : ".",
				"type" : "JSON",
				"implicit" : 1
			}
, 			{
				"name" : "bach.lookup.maxpat",
				"bootpath" : "~/Documents/Max 7/Packages/bach/patchers",
				"patcherrelativepath" : "../../../Documents/Max 7/Packages/bach/patchers",
				"type" : "JSON",
				"implicit" : 1
			}
, 			{
				"name" : "jtol.bach.recompose.maxpat",
				"bootpath" : "~/Dropbox/op_bach_tree/trees_Max_703",
				"patcherrelativepath" : ".",
				"type" : "JSON",
				"implicit" : 1
			}
, 			{
				"name" : "jtol.bach.setdur.maxpat",
				"bootpath" : "~/Dropbox/op_bach_tree/trees_Max_703",
				"patcherrelativepath" : ".",
				"type" : "JSON",
				"implicit" : 1
			}
, 			{
				"name" : "jtol.bach.totdur.maxpat",
				"bootpath" : "~/Dropbox/op_bach_tree/trees_Max_703",
				"patcherrelativepath" : ".",
				"type" : "JSON",
				"implicit" : 1
			}
, 			{
				"name" : "bach.-.maxpat",
				"bootpath" : "~/Documents/Max 7/Packages/bach/patchers",
				"patcherrelativepath" : "../../../Documents/Max 7/Packages/bach/patchers",
				"type" : "JSON",
				"implicit" : 1
			}
, 			{
				"name" : "bach.sum.maxpat",
				"bootpath" : "~/Documents/Max 7/Packages/bach/patchers",
				"patcherrelativepath" : "../../../Documents/Max 7/Packages/bach/patchers",
				"type" : "JSON",
				"implicit" : 1
			}
, 			{
				"name" : "bach.filter.maxpat",
				"bootpath" : "~/Documents/Max 7/Packages/bach/patchers",
				"patcherrelativepath" : "../../../Documents/Max 7/Packages/bach/patchers",
				"type" : "JSON",
				"implicit" : 1
			}
, 			{
				"name" : "jtol.bach.iter.maxpat",
				"bootpath" : "~/Dropbox/op_bach_tree/trees_Max_703",
				"patcherrelativepath" : ".",
				"type" : "JSON",
				"implicit" : 1
			}
, 			{
				"name" : "jtol.bach.branches.maxpat",
				"bootpath" : "~/Dropbox/op_bach_tree/trees_Max_703",
				"patcherrelativepath" : ".",
				"type" : "JSON",
				"implicit" : 1
			}
, 			{
				"name" : "jtol.bach2score.maxpat",
				"bootpath" : "~/Dropbox/op_bach_tree/trees_Max_703",
				"patcherrelativepath" : ".",
				"type" : "JSON",
				"implicit" : 1
			}
, 			{
				"name" : "jtol.bach.timesig.maxpat",
				"bootpath" : "~/Dropbox/op_bach_tree/trees_Max_703",
				"patcherrelativepath" : ".",
				"type" : "JSON",
				"implicit" : 1
			}
, 			{
				"name" : "bach.abs.maxpat",
				"bootpath" : "~/Documents/Max 7/Packages/bach/patchers",
				"patcherrelativepath" : "../../../Documents/Max 7/Packages/bach/patchers",
				"type" : "JSON",
				"implicit" : 1
			}
, 			{
				"name" : "jtol.bach.ratio.maxpat",
				"bootpath" : "~/Dropbox/op_bach_tree/trees_Max_703",
				"patcherrelativepath" : ".",
				"type" : "JSON",
				"implicit" : 1
			}
, 			{
				"name" : "bach.lcm.maxpat",
				"bootpath" : "~/Documents/Max 7/Packages/bach/patchers",
				"patcherrelativepath" : "../../../Documents/Max 7/Packages/bach/patchers",
				"type" : "JSON",
				"implicit" : 1
			}
, 			{
				"name" : "bach.gcd.maxpat",
				"bootpath" : "~/Documents/Max 7/Packages/bach/patchers",
				"patcherrelativepath" : "../../../Documents/Max 7/Packages/bach/patchers",
				"type" : "JSON",
				"implicit" : 1
			}
, 			{
				"name" : "bach.times.maxpat",
				"bootpath" : "~/Documents/Max 7/Packages/bach/patchers",
				"patcherrelativepath" : "../../../Documents/Max 7/Packages/bach/patchers",
				"type" : "JSON",
				"implicit" : 1
			}
, 			{
				"name" : "bach.div.maxpat",
				"bootpath" : "~/Documents/Max 7/Packages/bach/patchers",
				"patcherrelativepath" : "../../../Documents/Max 7/Packages/bach/patchers",
				"type" : "JSON",
				"implicit" : 1
			}
, 			{
				"name" : "bach.change.maxpat",
				"bootpath" : "~/Documents/Max 7/Packages/bach/patchers",
				"patcherrelativepath" : "../../../Documents/Max 7/Packages/bach/patchers",
				"type" : "JSON",
				"implicit" : 1
			}
, 			{
				"name" : "bach.nth.mxo",
				"type" : "iLaX"
			}
, 			{
				"name" : "bach.flat.mxo",
				"type" : "iLaX"
			}
, 			{
				"name" : "bach.join.mxo",
				"type" : "iLaX"
			}
, 			{
				"name" : "bach.leq.mxo",
				"type" : "iLaX"
			}
, 			{
				"name" : "bach.iter.mxo",
				"type" : "iLaX"
			}
, 			{
				"name" : "bach.depth.mxo",
				"type" : "iLaX"
			}
, 			{
				"name" : "bach.reg.mxo",
				"type" : "iLaX"
			}
, 			{
				"name" : "bach.slice.mxo",
				"type" : "iLaX"
			}
, 			{
				"name" : "bach.expr.mxo",
				"type" : "iLaX"
			}
, 			{
				"name" : "bach.collect.mxo",
				"type" : "iLaX"
			}
, 			{
				"name" : "bach.find.mxo",
				"type" : "iLaX"
			}
, 			{
				"name" : "bach.is.mxo",
				"type" : "iLaX"
			}
, 			{
				"name" : "bach.length.mxo",
				"type" : "iLaX"
			}
, 			{
				"name" : "bach.wrap.mxo",
				"type" : "iLaX"
			}
, 			{
				"name" : "bach.portal.mxo",
				"type" : "iLaX"
			}
, 			{
				"name" : "bach.args.mxo",
				"type" : "iLaX"
			}
, 			{
				"name" : "bach.insert.mxo",
				"type" : "iLaX"
			}
, 			{
				"name" : "bach.neq.mxo",
				"type" : "iLaX"
			}
, 			{
				"name" : "bach.subs.mxo",
				"type" : "iLaX"
			}
, 			{
				"name" : "bach.eq.mxo",
				"type" : "iLaX"
			}
, 			{
				"name" : "bach.pick.mxo",
				"type" : "iLaX"
			}
, 			{
				"name" : "bach.geq.mxo",
				"type" : "iLaX"
			}
, 			{
				"name" : "bach.gt.mxo",
				"type" : "iLaX"
			}
, 			{
				"name" : "bach.trans.mxo",
				"type" : "iLaX"
			}
, 			{
				"name" : "bach.step.mxo",
				"type" : "iLaX"
			}
, 			{
				"name" : "bach.ratnum.mxo",
				"type" : "iLaX"
			}
, 			{
				"name" : "bach.score.mxo",
				"type" : "iLaX"
			}
, 			{
				"name" : "bach.submatrix.mxo",
				"type" : "iLaX"
			}
, 			{
				"name" : "bach.rot.mxo",
				"type" : "iLaX"
			}
 ],
		"autosave" : 0
	}

}
